<?xml version="1.0" encoding="utf-8"?>
<!-- Generator: Adobe Illustrator 25.2.1, SVG Export Plug-In . SVG Version: 6.00 Build 0)  -->
<svg version="1.1" id="Layer_1" xmlns="http://www.w3.org/2000/svg" xmlns:xlink="http://www.w3.org/1999/xlink" x="0px" y="0px"
	 viewBox="0 0 404.1 97.4" style="enable-background:new 0 0 404.1 97.4;" xml:space="preserve">
<style type="text/css">
	.st0{fill:#425079;}
	.st1{fill:#63699A;}
	.st2{fill:#FFFFFF;stroke:#425079;stroke-width:1.1108;stroke-miterlimit:10;}
	.st3{fill:#FF003A;}
	.st4{fill:#FFFFFF;}
	.st5{fill:#FFFFFF;stroke:#425079;stroke-width:0.7155;stroke-miterlimit:10;}
	.st6{fill:none;stroke:#425079;stroke-width:0.7155;stroke-miterlimit:10;}
	.st7{fill:#FFFFFF;stroke:#425079;stroke-width:0.2826;stroke-miterlimit:10;}
	.st8{fill:#FFFFFF;stroke:#425079;stroke-width:0.2281;stroke-miterlimit:10;}
</style>
<path class="st0" d="M115.6,38.9c10.1,0,17.1,5.6,17.4,13.7h-8.7c-0.4-4.1-3.7-6.6-9-6.6c-5,0-8.4,2.5-8.4,6c0,2.8,2.2,4.7,6.9,5.9
	l7.6,1.8c9.1,2.2,12.6,5.6,12.6,12.3c0,8.3-7.7,13.9-18.8,13.9c-10.7,0-17.8-5.6-18.5-13.9h9.2c0.7,4.3,4.1,6.8,9.8,6.8
	c5.7,0,9-2.3,9-6c0-2.9-1.7-4.5-6.5-5.7l-8.1-2c-8.2-2-12.3-6.2-12.3-12.6C97.9,44.5,105,38.9,115.6,38.9z"/>
<path class="st0" d="M181.1,85h-8.9v-7.7H172c-2.5,5.4-7.1,8.5-14,8.5c-9.8,0-15.9-6.4-15.9-16.8V39.7h9.3v27.5
	c0,6.9,3.3,10.6,9.7,10.6c6.7,0,10.8-4.6,10.8-11.7V39.7h9.3L181.1,85z"/>
<path class="st0" d="M192.2,39.7h8.8v7.7h0.2c1.5-5.3,5.6-8.4,10.9-8.4c1.1,0,2.1,0.1,3.2,0.3V48c-1.4-0.4-2.8-0.6-4.2-0.5
	c-6,0-9.7,4-9.7,10.4V85h-9.2V39.7z"/>
<path class="st0" d="M221.1,39.7h9.3V85h-9.3V39.7z"/>
<path class="st0" d="M239.2,62.4c0-14.3,7.6-23.4,18.9-23.4c6.5,0,11.7,3.3,14.2,8.3h0.2V22.9h9.3V85h-9v-7.7h-0.2
	c-1.4,2.6-3.4,4.8-6,6.3s-5.5,2.2-8.4,2.2C246.7,85.8,239.2,76.7,239.2,62.4z M248.7,62.4c0,9.5,4.6,15.5,12,15.5
	c7.1,0,11.9-6.1,11.9-15.5c0-9.5-4.8-15.5-11.9-15.5C253.3,46.8,248.7,52.8,248.7,62.4z"/>
<path class="st0" d="M290.5,72.1c0-7.9,6.1-12.8,16.8-13.4l12.4-0.7v-3.5c0-5-3.4-8-9.1-8c-5.4,0-8.7,2.6-9.6,6.6h-8.8
	c0.5-8.2,7.5-14.2,18.7-14.2c11,0,18,5.8,18,14.9V85H320v-7.4h-0.2c-2.6,5-8.3,8.2-14.3,8.2C296.7,85.8,290.5,80.2,290.5,72.1z
	 M319.7,68v-3.6l-11.1,0.7c-5.6,0.4-8.7,2.8-8.7,6.7c0,3.9,3.3,6.5,8.3,6.5C314.6,78.4,319.7,73.9,319.7,68z"/>
<path class="st0" d="M351,29v10.7h8.6v7.4H351V72c0,3.9,1.7,5.7,5.5,5.7c1,0,2-0.1,3.1-0.2v7.4c-1.7,0.3-3.4,0.5-5.2,0.4
	c-9.2,0-12.7-3.5-12.7-12.2v-26h-6.6v-7.4h6.6V29H351z"/>
<path class="st0" d="M365.7,72.1c0-7.9,6.1-12.8,16.8-13.4l12.4-0.7v-3.5c0-5-3.4-8-9.1-8c-5.4,0-8.7,2.6-9.5,6.6h-8.8
	c0.5-8.2,7.5-14.2,18.7-14.2c11,0,18,5.8,18,14.9V85h-8.9v-7.4H395c-2.6,5-8.4,8.2-14.3,8.2C371.8,85.8,365.7,80.2,365.7,72.1z
	 M394.9,68v-3.6l-11.1,0.7c-5.6,0.4-8.7,2.8-8.7,6.7c0,3.9,3.3,6.5,8.3,6.5C389.8,78.4,394.9,73.9,394.9,68z"/>
<ellipse transform="matrix(0.8187 -0.5742 0.5742 0.8187 -25.0397 34.9755)" class="st0" cx="42.9" cy="57.1" rx="45.2" ry="37.6"/>
<ellipse transform="matrix(0.8186 -0.5744 0.5744 0.8186 -24.2409 35.0851)" class="st1" cx="43.4" cy="55.9" rx="42.4" ry="35.1"/>
<path class="st2" d="M44.4,84.8c-1.2-0.9-9-6.8-10.1-8.5c-0.7-1-1.4-2.1-1.9-2.8c-0.3-0.5-1.6-1.9-1.6-2.5L29.3,82L28,94
	c0,0,0,0.1,0,0.2c6.9,0.8,14.3,0.1,21.6-2c-1-1.5-2-3-2.8-4.6C46.7,87.6,45.6,85.7,44.4,84.8z"/>
<path class="st3" d="M61.7,83.1c0,1.3,0,2.5,0,3.5l0,0C61.7,85.2,61.7,83.8,61.7,83.1z"/>
<path class="st4" d="M60,11.9c0,0,0.7,1.8,1.7,2.2c0.5,0.2,1.1,0.2,1.5,0.5c0.4-0.1,0.7-0.2,1.1-0.4v0c1.8-1.2,2.6-3.6,2.8-5.2
	c-2.6-1-5.3-1.7-8-2.2C59.6,8,60.3,10,60,11.9z"/>
<path class="st5" d="M71.4,64.3c-0.5-7-8.7-19.8-9.4-20.5c-0.3-0.3-0.7-0.5-1.2-0.7c-0.5-0.2-1-0.6-1.2-1.2c-0.4-0.9-4.7-9-4.7-9.8
	c-0.1-0.7,0.3-3,0.3-3c0.5-0.8,1.3-1.4,2.2-1.8c1.6-0.7,4.8-4.1,5.4-5.1c0,0-2.5,0-4.3,0.8c-1.9,0.7-4.4,1.4-6.3,0.9
	c-1.5-0.4-2.2-0.1-4.4-1c1,0.3,1.9,0.5,2.9,0.4c0.5,0,1.1,0.1,1.6,0.2c2.8,0.6,6-0.9,6-0.9s3.3-0.8,4.5-0.3c0.5-1,0.8-3.5,1-5.9
	c0-0.1,0,0.2,0,0.2c0,0.1-0.6,1.5-1.5,1.8c-0.9,0.4-4.9-1.1-4.5-2.3c0.6-0.4,1.3-0.8,2-1.1c-1.5-0.7-3-2.2-4.4-5
	c-0.3-0.5-0.6-1.1-0.8-1.7c0,0,0,0,0-0.1C54.3,8.2,54.2,8,54,7.9c-0.2-0.1-0.4-0.2-0.6-0.2c-0.5,0-1.1,0.1-1.5,0.5
	c-0.1,0.1-0.2,0.2-0.2,0.3c-0.1,0.1-0.1,0.2-0.1,0.3c-0.2,1.1-0.4,2.2-0.7,3.3c-0.6,2.3-2.6,4.3-4.5,5.1c-0.6,0.2-3.8,1.5-7.2-0.9
	c-1.1-0.8-3-3.5-3.8-6.3l-7.4,2.5c-0.1-0.1-0.2-0.1-0.3-0.1c0.7,0.4,1.9,1.2,2.1,2.1c0.2,0.9,0.1,4.7,0.1,4.7l0,0.6
	c0,0.2,0,0.5,0,0.8l0,0.5l0,0c0,0.3-0.1,0.4-0.3,0.5c0.3,0.3,0.6,0.5,0.8,0.8c0.7,0.8,2,2.8,3,3.5c0.8,0.6,1.3,1.4,2.4,1.9
	c0,0,0,0,0,0c0.3,0.1,0.6,0.2,0.9,0.3c0.7,0.2,1.5,0.3,2.2,0.3c-0.8-0.1-1.5-0.2-2.2-0.3c-0.3-0.1-0.6-0.1-0.9-0.3c0,0,0,0.3,0,1.3
	c-0.1,1.5-1.6,9-1.7,10.7c-0.2,1.7-0.4,2.1-0.8,2.9c-0.4,0.7-1.9,3.1-1.9,3.1s-1.3,3.6-1.3,5.5c0,1.9,0.5,9.6,0.5,9.6l0.4,10.9v0
	c0,0.6,1.2,1.9,1.5,2.4C32.7,75,33.4,76,34,77c1.1,1.6,8.6,7.3,9.8,8.2c1.2,0.9,2.3,2.6,2.3,2.6c0.8,1.5,1.7,3,2.7,4.4l0.2,0
	L47.3,90l8.7-5.7c0.4,1.6,0.8,3.1,1.1,4.7h0c-0.4-3.2-1.6-6.1-2.3-7.5c-0.3-0.7-9.4-8.1-9.4-8.1c-0.8-0.6-1.3-1.4-1.7-2.3L42.7,68
	c-0.1-0.4-0.2-0.7-0.1-1.1c0,0.4,0,0.8,0.1,1.1l1.1,3.1c0.3,0.9,0.9,1.7,1.7,2.3c0,0,9.1,7.4,9.4,8.1c0.7,1.5,1.9,4.3,2.3,7.5
	c1.5-0.7,3-1.5,4.5-2.4c0-1,0-2.2,0-3.5c0-0.3,0-0.4,0-0.4h0c0.1-3.8,0.6-8.6,2.3-12.8c2-5.1,0-16-1.6-19.8
	c1.6,3.8,3.6,14.7,1.6,19.8c-1.6,4.2-2.2,9-2.3,12.8l0.5-0.1c0,0,3.4-0.2,5.2,0.3c0.5-0.4,1-0.7,1.5-1.1
	C70.2,76.1,71.7,68.5,71.4,64.3z"/>
<path class="st4" d="M41.4,16.3c0.8,0.2,3.9,0.6,5.6-0.4c2.1-1.1,3.4-4.6,3.5-6c0-1.6-1.3-3-3.4-3.8c-3.3,0.3-6.5,0.8-9.7,1.6
	c-0.5,0.6-0.9,1.3-0.9,2.1C36.6,12.3,39.3,15.7,41.4,16.3z M41.6,8.1c1.1-0.6,2.5-1.3,3.8-1.1c2.5,0.3,3.7,1.3,3.8,2.2
	c0,0.3,0.2,0.7,0.3,1.1c0.1,0.5,0.1,0.9-0.1,1.4c-0.1,0.4-0.4,0.9-0.7,1.2l-2.8,2.6c-0.4,0.4-0.8,0.6-1.3,0.8
	c-0.5,0.2-1,0.2-1.5,0.1c-1.2-0.2-2.7-0.8-3-2.5c-0.2-0.9-0.2-1.8-0.2-2.6c0-0.6,0.2-1.2,0.5-1.8C40.6,8.8,41,8.4,41.6,8.1z"/>
<path class="st3" d="M24.3,15.1c0-0.5,0.2-1.7,0.6-2.3C24.4,13.4,24.2,14.1,24.3,15.1z"/>
<path class="st3" d="M35.6,27.8L35.6,27.8C35.6,27.8,35.6,27.8,35.6,27.8z"/>
<path class="st3" d="M29.8,19.7l0,0.8C29.8,20.2,29.8,19.9,29.8,19.7z"/>
<path class="st4" d="M51.3,6.9c0,0,2.3-0.4,3-0.4c0.2,0,0.4-0.1,0.7-0.4C53.3,6,51.5,6,49.7,6c0.3,0.1,0.6,0.3,1,0.5L51.3,6.9z"/>
<path class="st3" d="M63.7,16.2c0-0.3,0-0.5,0-0.8l-0.1,0L63.7,16.2z"/>
<path class="st3" d="M29.3,21.4l0.1,0.1c0.2-0.1,0.3-0.2,0.3-0.5C29.6,21.2,29.4,21.3,29.3,21.4z"/>
<path class="st4" d="M57.8,4.6c-0.9-1-2.7-2.8-4.2-3.4c-2.1-0.8-5.5,0-5.5,0s-2-0.7-6.5-0.8c-7.4-0.2-12.9,7.7-14,9.4
	c-0.2,0.1-0.2,0.8-0.4,0.9c-0.1,0.2-0.3,0.2-0.3,0.8"/>
<path class="st6" d="M57.8,4.6c-0.9-1-2.7-2.8-4.2-3.4c-2.1-0.8-5.5,0-5.5,0s-2-0.7-6.5-0.8c-7.4-0.2-12.9,7.7-14,9.4
	c-0.2,0.1-0.2,0.8-0.4,0.9c-0.1,0.2-0.3,0.2-0.3,0.8"/>
<path class="st3" d="M28.6,21.5c0.3,0,0.6,0.1,0.8,0l-0.1-0.1C29,21.5,28.8,21.6,28.6,21.5z"/>
<path class="st3" d="M27,21.4c0,0-0.5,0-1.2-1.2c-0.3-0.5-0.6-1.5-0.9-2.4C25.5,19.5,26.2,21.4,27,21.4c0.4,0,0.8,0.1,1.2,0.1l0,0
	C27.2,21.3,27,21.4,27,21.4z"/>
<path class="st4" d="M55,6.2c0.4-0.3,0.8-0.7,1.4-1.1c-3.3-0.4-6.7-0.4-10-0.1c1.4,0.2,2.2,0.5,3.3,1C51.5,6,53.3,6,55,6.2z"/>
<path class="st0" d="M49,92.2l-0.2,0c0.8,1.2,1.7,2.3,2.6,3.3l0,0L49,92.2z"/>
<path class="st0" d="M67.3,82.9c0.6,0.2,1,0.5,0.9,0.9c-0.2,0.9-0.8,2.4-1.2,3.6l0.1-0.1c0.4-1.3,1-3.3,1.6-5.6
	C68.3,82.2,67.8,82.6,67.3,82.9z"/>
<path class="st4" d="M43.5,5.5c-2.6,0-4.9,0.9-6.1,2.3c3.2-0.8,6.4-1.4,9.7-1.6C46,5.7,44.8,5.5,43.5,5.5z"/>
<path class="st0" d="M59,6.7c2.7,0.5,5.4,1.2,8,2.2c0.1-0.4,0.1-0.9,0.1-1.3c-2.9-1-5.8-1.8-8.9-2.2C58.5,5.8,58.7,6.2,59,6.7z"/>
<path class="st0" d="M57.2,89.2c0-0.1,0-0.1,0-0.2h0C57.2,89.1,57.2,89.1,57.2,89.2z"/>
<path class="st0" d="M61.7,86.6c0,0.7,0,1.4,0.1,1.8C61.7,87.9,61.7,87.3,61.7,86.6L61.7,86.6z"/>
<path class="st0" d="M43.1,16.3c0.5,0.1,1,0.1,1.5-0.1c0.5-0.2,1-0.4,1.3-0.8l2.8-2.6c0.3-0.3,0.5-0.7,0.7-1.2
	c0.1-0.4,0.2-0.9,0.1-1.4c-0.1-0.4-0.3-0.8-0.3-1.1c-0.1-0.9-1.3-1.9-3.8-2.2c-1.3-0.1-2.8,0.5-3.8,1.1c-0.5,0.3-1,0.8-1.3,1.3
	c-0.3,0.5-0.5,1.1-0.5,1.8c0,0.9,0.1,1.8,0.2,2.6C40.3,15.5,41.8,16.1,43.1,16.3z M44.9,9.3c0.3,0,0.6,0.1,0.8,0.2
	c0.2,0.2,0.4,0.4,0.5,0.6c0.1,0.3,0.1,0.5,0.1,0.8c-0.1,0.3-0.2,0.5-0.4,0.7c-0.2,0.2-0.5,0.3-0.7,0.4c-0.3,0.1-0.6,0-0.8-0.1
	c-0.3-0.1-0.5-0.3-0.6-0.5c-0.2-0.2-0.2-0.5-0.2-0.8c0-0.4,0.1-0.7,0.4-1C44.2,9.4,44.6,9.3,44.9,9.3z"/>
<path class="st0" d="M55.7,8.5c0.1,1.2,0.7,3.2,1.8,4.9c0.3-0.1,0.7-0.2,1.5-0.1c0.3,0,0.5,0,0.7-0.2c0.2-0.1,0.4-0.4,0.4-0.6
	c0-0.1,0-0.3,0-0.4c-0.4-1.7-1.2-4.5-2.5-5.7c-0.4-0.1-0.8-0.1-1.2-0.2C56,7,55.7,7.8,55.7,8.5z M58.2,9.5c0.2,0.6,0,1.2-0.4,1.4
	c-0.5,0.2-1-0.2-1.2-0.7c-0.2-0.6,0-1.2,0.4-1.4C57.4,8.6,58,8.9,58.2,9.5L58.2,9.5z"/>
<path class="st0" d="M55.2,10.2c-0.3-0.5-0.5-1.1-0.8-1.7C54.6,9,54.9,9.6,55.2,10.2z"/>
<path class="st0" d="M57.4,6.4C57.2,6.3,57,6.1,56.7,6c-0.1,0.1-0.2,0.2-0.3,0.3C56.7,6.4,57.1,6.4,57.4,6.4z"/>
<path class="st0" d="M58.2,22.8c0,0-3.1,1.5-6,0.9c-0.5-0.1-1.1-0.2-1.6-0.2c-1,0-2-0.1-2.9-0.4c2.2,0.9,2.9,0.7,4.4,1
	c1.8,0.5,4.4-0.2,6.3-0.9c1.9-0.7,4.3-0.8,4.3-0.8C61.5,21.9,58.2,22.8,58.2,22.8z"/>
<path class="st7" d="M56.5,10.1c0.2,0.6,0.8,0.9,1.2,0.7c0.5-0.2,0.7-0.8,0.4-1.4C58,8.9,57.4,8.6,57,8.8
	C56.5,8.9,56.3,9.6,56.5,10.1z"/>
<path class="st8" d="M45.3,12.1c0.8-0.2,1.2-0.9,1.1-1.7c-0.2-0.8-0.9-1.2-1.7-1.1c-0.8,0.2-1.2,0.9-1.1,1.7
	C43.7,11.8,44.5,12.3,45.3,12.1z"/>
<path class="st0" d="M58.1,5.1c1-0.5,2-0.8,3.1-0.8c3.1-0.2,5.8,1.3,6,3.1c0,0.1,0,0.1,0,0.2c0.3,0.1,0.5,0.2,0.8,0.3
	c0-0.2,0-0.4,0-0.4c0.3-0.4,0.5-0.9,0.6-1.3c0.1-0.4,0-1.9,0-1.9s-4.4-1.2-7.8-0.9c-1.2,0.1-2.3,0.5-3.2,1
	C57.9,4.8,58.1,5.1,58.1,5.1L58.1,5.1z"/>
<path class="st5" d="M61.6,14.1c-1-0.4-1.4-2.2-1.4-2.2C60.6,10,59.6,8,59,6.7c-0.3-0.6-0.6-1.4-0.8-1.7c-0.2,0-0.3,0.3-0.5,0.3
	c-0.4,0.2-0.7,0.5-1,0.7c0.3,0.1,0.5,0.2,0.7,0.4c1,1,1.7,3.2,2,4.6c0,0.1,0,0.3,0,0.4s-0.1,0.2-0.2,0.3S59,11.9,58.8,12
	c-0.1,0-0.3,0-0.4,0c-0.6-0.1-1,0-1.2,0.1c0.8,1.2,1.8,2.2,3.2,2.5c0.7,0.2,1.8,0.2,2.7,0C62.7,14.3,62.1,14.3,61.6,14.1z"/>
<path class="st0" d="M58,5.1c0,0-0.2-0.3-0.5-0.6c-0.4,0.2-0.7,0.5-1.1,0.7c0.4,0,0.8,0.1,1.2,0.2C57.8,5.2,57.9,5.1,58,5.1L58,5.1z
	"/>
<path class="st0" d="M43.2,4.9c-4.5,0-8.7,2.3-8.7,2.3l-0.4,0.2c4-1.2,8.1-2,12.3-2.4C45.4,4.9,44.3,4.8,43.2,4.9z"/>
<path class="st0" d="M63.7,15.4c0-0.2-0.1-0.5-0.3-0.7l0.2,0.7L63.7,15.4z"/>
<path class="st0" d="M55.4,6.2c-0.1,0-0.3,0-0.4,0c-0.3,0.2-0.5,0.4-0.7,0.4c-0.7,0-3,0.4-3,0.4l-0.6-0.4c-0.4-0.2-0.7-0.3-1-0.5
	c-0.9,0-1.7,0.1-2.6,0.1c2,0.8,3.4,2.2,3.4,3.8c0,1.4-1.3,4.9-3.5,6c-1.7,0.9-4.8,0.6-5.6,0.4c-2.1-0.6-4.8-4-4.8-6.4
	c0-0.8,0.3-1.5,0.9-2.1c-3.6,1-7.1,2.3-10.5,3.9c0,0.1,0.1,0.3,0.1,0.4c0.2,0,0.4,0.1,0.5,0.2c0.1,0,0.2,0.1,0.3,0.1l7.4-2.5
	c0.8,2.8,2.7,5.5,3.8,6.3c3.5,2.5,6.7,1.2,7.2,0.9c1.9-0.8,3.9-2.7,4.5-5.1c0.3-1.1,0.5-2.2,0.7-3.3c0-0.1,0.1-0.2,0.1-0.3
	c0.1-0.1,0.1-0.2,0.2-0.3c0.4-0.3,1-0.5,1.5-0.5c0.2,0,0.4,0.1,0.6,0.2c0.2,0.1,0.3,0.3,0.4,0.5c0,0,0,0,0,0.1
	c0-0.1-0.1-0.3-0.1-0.4C54.3,7.2,55.1,6.5,55.4,6.2z"/>
<path class="st0" d="M27.1,12.1C27,12,27,11.8,27,11.7c-0.3,0.1-0.6,0.3-0.8,0.4C26.4,12.1,26.8,12.1,27.1,12.1z"/>
<path class="st0" d="M60.4,14.6c-1.4-0.4-2.4-1.4-3.2-2.5c-0.3,0.1-0.4,0.3-0.5,0.3c-0.1,0-0.9-1.1-1.5-2.2c1.4,2.8,2.9,4.3,4.4,5
	c0.5-0.2,0.9-0.3,1.4-0.4c0.8-0.1,1.5-0.1,2.3,0c-0.1-0.1-0.1-0.1-0.2-0.2C62.2,14.8,61.2,14.8,60.4,14.6z"/>
<path class="st0" d="M64.2,14.1L64.2,14.1c-0.3,0.2-0.7,0.4-1.1,0.4c0.1,0.1,0.2,0.1,0.2,0.2c0.2,0.2,0.3,0.4,0.3,0.7
	c0.2,0,0.3-0.1,0.5-0.1c2.6-0.9,3.4-4.1,3.7-6.1C67.5,9.1,67.3,9,67,8.9C66.7,10.6,65.9,12.9,64.2,14.1z"/>
<path class="st0" d="M67,8.9c0.3,0.1,0.5,0.2,0.8,0.3c0.1-0.6,0.1-1,0.1-1.3c-0.3-0.1-0.5-0.2-0.8-0.3C67.1,8,67.1,8.5,67,8.9z"/>
<path class="st0" d="M37.4,7.8c1.2-1.4,3.5-2.3,6.1-2.3c1.2,0,2.4,0.2,3.6,0.6C48,6.1,48.9,6.1,49.7,6c-1.1-0.5-1.9-0.9-3.3-1
	c-4.2,0.3-8.3,1.1-12.3,2.4l-7.2,4.1c0,0.1,0,0.1,0,0.2C30.3,10.1,33.8,8.8,37.4,7.8z"/>
<path class="st0" d="M27,11.7c0-0.1,0-0.1,0-0.2l-1.2,0.7c0.1,0,0.2,0,0.4-0.1C26.4,12,26.7,11.8,27,11.7z"/>
<path class="st0" d="M55.4,6.2c0.1-0.1,0.2-0.2,0.2-0.2C56,5.9,56.4,5.9,56.7,6c0.3-0.3,0.6-0.5,1-0.7c-0.4-0.1-0.8-0.1-1.2-0.2
	c-0.6,0.4-1,0.8-1.4,1.1C55.2,6.2,55.3,6.2,55.4,6.2z"/>
<path class="st0" d="M56.7,12.3c0.1,0,0.2-0.2,0.5-0.3c-0.9-1.4-1.4-3-1.5-4c0-0.6,0.2-1.2,0.7-1.8c-0.3,0-0.7-0.1-1-0.1
	c-0.4,0.3-1.1,1-1.1,1.8c0,0.2,0,0.3,0.1,0.4c0.3,0.6,0.5,1.2,0.8,1.7C55.8,11.3,56.5,12.3,56.7,12.3z"/>
<path class="st0" d="M56.7,6c-0.4-0.1-0.8-0.1-1.1,0.1c0,0-0.1,0.1-0.2,0.2c0.3,0,0.7,0.1,1,0.1C56.5,6.2,56.6,6.1,56.7,6z"/>
<path class="st0" d="M62.7,90.3L62.7,90.3c0.4,0.3,0.8,0.4,1.3,0.5c0.2,0,0.4,0,0.6,0c0.2-0.1,0.4-0.1,0.5-0.3l0,0
	c-0.2,0.1-0.4,0.2-0.5,0.2C64.7,90.6,63.6,90.6,62.7,90.3z"/>
<path class="st0" d="M67.1,87.5l-0.3,0.2c-1.3,0.9-2.7,1.8-4.1,2.6c0.8,0.3,1.9,0.4,1.9,0.4c0.2,0,0.4-0.1,0.5-0.2l1.3-1.2
	C66.5,89.2,66.7,88.4,67.1,87.5z"/>
<path class="st0" d="M61.7,82.7c0,0,0,0.2,0,0.4C61.7,83,61.7,82.8,61.7,82.7L61.7,82.7z"/>
<path class="st0" d="M62.1,82.6l-0.5,0.1c0,0.1,0,0.3,0,0.4c0,0.7,0,2.1,0,3.5c1.4-0.8,2.8-1.7,4.1-2.6c0.5-0.3,1-0.7,1.5-1
	C65.6,82.4,62.1,82.6,62.1,82.6z"/>
<path class="st0" d="M61.7,86.6c0,0.7,0,1.3,0,1.9c0,0.5,0,0.8,0,0.9c0,0.4,0.4,0.7,0.9,0.9c1.4-0.8,2.7-1.7,4.1-2.6l0.3-0.2
	c0.4-1.2,0.9-2.7,1.2-3.6c0.1-0.4-0.3-0.7-0.9-0.9c-0.5,0.4-1,0.7-1.5,1C64.5,84.9,63.1,85.8,61.7,86.6z"/>
<path class="st0" d="M61.8,89.4c0-0.1,0-0.5,0-0.9C61.8,88.9,61.8,89.2,61.8,89.4c0,0.4,0.4,0.7,0.9,0.9l0.1-0.1
	C62.2,90.1,61.8,89.8,61.8,89.4z"/>
<path class="st0" d="M57.1,93.4c0-0.1,0-0.1,0.1-0.2l0,0C57.1,93.3,57.1,93.3,57.1,93.4z"/>
<path class="st0" d="M53,96.8c0.8,0.4,1.8,0.5,2.5-0.7l0,0C54.9,96.8,54.1,97.2,53,96.8z"/>
<path class="st0" d="M51.4,95.5l0.2,0.2c0.4,0.4,0.9,0.8,1.4,1c1,0.4,1.9-0.1,2.5-0.7c0.7-1,1.2-1.9,1.5-2.7c0-0.1,0-0.1,0-0.2
	C55.2,94.1,53.4,94.9,51.4,95.5z"/>
<path class="st0" d="M56.1,84.3L47.3,90l1.6,2.2c2.8-0.8,5.5-1.9,8.2-3.2C56.9,87.4,56.5,85.8,56.1,84.3z"/>
<path class="st0" d="M49,92.2l2.5,3.4c1.9-0.7,3.8-1.4,5.7-2.3c0.2-1.3,0.2-2.7,0.1-4c0-0.1,0-0.1,0-0.2
	C54.5,90.3,51.8,91.3,49,92.2z"/>
<path class="st0" d="M57.3,89.8c0-0.2-0.1-0.4-0.1-0.6c0.2,1.3,0.1,2.7-0.1,4l0,0C57.5,92.3,57.5,91.3,57.3,89.8z"/>
<path class="st0" d="M59.6,15.2c-0.7,0.3-1.3,0.6-2,1.1c-0.3,1.2,3.6,2.6,4.5,2.3c0.9-0.4,1.5-2.2,1.5-2.3v0l-0.2-0.8
	C62.4,15.8,61,15.8,59.6,15.2z"/>
<path class="st0" d="M61,14.8c-0.5,0.1-1,0.2-1.4,0.4c1.4,0.7,2.7,0.6,3.9,0.3l-0.2-0.7C62.6,14.7,61.8,14.7,61,14.8z"/>
<path class="st0" d="M28.6,21.5c-0.1,0-0.2,0-0.3,0C28.4,21.5,28.5,21.5,28.6,21.5z"/>
<path class="st0" d="M26,12.2l-0.2,0c-0.3,0.1-0.6,0.3-0.9,0.4c0,0-0.1,0.1-0.1,0.1c-0.4,0.5-0.5,1.8-0.6,2.3c0,0.2,0.1,0.4,0.1,0.6
	c0.2,0.5,0.3,1.3,0.6,2.1c0.3,0.9,0.6,1.9,0.9,2.4c0.6,1.2,1.2,1.2,1.2,1.2s0.2-0.1,1.2,0.1l0,0c0.1,0,0.2,0,0.3,0
	c0.2,0,0.5,0,0.7-0.2c-0.1-0.1-0.2-0.2-0.4-0.3c0.1,0.1,0.2,0.2,0.4,0.3c0.2-0.1,0.3-0.2,0.5-0.4c0,0,0,0,0,0c0-0.2,0-0.4,0-0.5
	l0-0.8c0-0.5,0-0.9,0-0.9s0,0.4,0,0.9l0-0.6c0,0,0.1-3.8-0.1-4.7c-0.2-0.9-1.4-1.7-2.1-2.1c-0.2,0-0.3-0.1-0.5-0.1
	C27.4,12.8,26.8,12.3,26,12.2z"/>
<path class="st0" d="M29.7,21L29.7,21l0-0.5C29.7,20.6,29.7,20.8,29.7,21C29.7,21,29.7,21,29.7,21z"/>
<path class="st0" d="M24.3,15.1c0,0.1,0,0.2,0,0.2s0.3,1.2,0.7,2.5c-0.2-0.8-0.4-1.5-0.6-2.1C24.4,15.5,24.3,15.3,24.3,15.1z"/>
<path class="st0" d="M26,12.2c0.7,0,1.4,0.6,1.1,0C26.8,12.2,26.4,12.2,26,12.2z"/>
<path class="st0" d="M25,12.7L25,12.7c-0.1,0.1-0.1,0.1-0.1,0.1C24.9,12.8,24.9,12.7,25,12.7z"/>
<path class="st0" d="M25.6,12.3L25.6,12.3c-0.2,0.1-0.4,0.2-0.6,0.4c0.3-0.2,0.6-0.3,0.9-0.4C25.8,12.3,25.7,12.3,25.6,12.3z"/>
<path class="st0" d="M25.5,12.3L25.5,12.3L25.5,12.3l0.2-0.1C25.6,12.2,25.5,12.2,25.5,12.3L25,12.7l0,0
	C25.1,12.5,25.3,12.4,25.5,12.3z"/>
<path class="st0" d="M26,12.2c0.4,0,0.7-0.1,1.1,0c0,0,0,0,0,0c0,0,0,0,0-0.1c-0.3,0-0.6,0-1,0c-0.1,0-0.1,0.1-0.2,0.1
	C26,12.2,26,12.2,26,12.2z"/>
<path class="st0" d="M27.1,12.2C27.1,12.2,27.1,12.2,27.1,12.2c0.2,0,0.3,0.1,0.5,0.1C27.5,12.2,27.3,12.1,27.1,12.2
	C27.1,12.1,27.1,12.1,27.1,12.2z"/>
<path class="st0" d="M26,12.2c0,0-0.1,0-0.1,0l-0.1,0L26,12.2z"/>
<path class="st0" d="M25.9,12.2c-0.1,0-0.2,0-0.4,0.1C25.7,12.3,25.8,12.3,25.9,12.2L25.9,12.2z"/>
<path class="st0" d="M25.6,12.3c0.1,0,0.2-0.1,0.4-0.1c0.1,0,0.1-0.1,0.2-0.1c-0.2,0-0.3,0-0.4,0.1L25.6,12.3L25.6,12.3z"/>
<path class="st0" d="M225.4,35.5c3,0,5.4-2.4,5.4-5.3c0-3-2.4-5.3-5.4-5.3c-3,0-5.4,2.4-5.4,5.3C220.1,33.1,222.5,35.5,225.4,35.5z"
	/>
</svg>
